<?xml version="1.0" encoding="utf-8"?>
<!-- Generator: Adobe Illustrator 17.0.0, SVG Export Plug-In . SVG Version: 6.00 Build 0)  -->
<!DOCTYPE svg PUBLIC "-//W3C//DTD SVG 1.1//EN" "http://www.w3.org/Graphics/SVG/1.1/DTD/svg11.dtd">
<svg version="1.1" id="Calque_1" xmlns="http://www.w3.org/2000/svg" xmlns:xlink="http://www.w3.org/1999/xlink" x="0px" y="0px"
	 width="594.412px" height="142.44px" viewBox="0 0 594.412 142.44" enable-background="new 0 0 594.412 142.44"
	 xml:space="preserve">
<g>
	<g>
		<path fill="#1FE8AF" d="M58.129,112.898C58.129,112.898,58.129,112.897,58.129,112.898c0.155-0.744-0.043-1.495-0.543-2.063
			c-0.868-0.984-2.374-1.08-3.359-0.212c-0.033,0.03-0.126,0.126-0.188,0.19l-0.053,0.055l0,0
			c-8.722,9.733-18.768,11.794-25.711,11.794c-2.485,0-4.569-0.264-6.057-0.535c5.338,5.144,11.462,9.476,18.174,12.802
			C43.835,133.752,54.65,128.844,58.129,112.898z"/>
		<path fill="#1FE8AF" d="M91.096,110.868L91.096,110.868l-0.05-0.051c-0.061-0.063-0.155-0.16-0.19-0.192
			c-0.985-0.868-2.491-0.773-3.359,0.211c-0.5,0.568-0.698,1.319-0.543,2.062c0,0,0,0.001,0,0.001
			c2.163,9.912,7.157,15.46,10.965,18.368c2.816,2.15,5.414,3.214,6.797,3.677c6.728-3.33,12.865-7.671,18.213-12.827
			c-1.491,0.274-3.602,0.546-6.12,0.546C109.864,122.662,99.818,120.601,91.096,110.868z"/>
		<path fill="#1FE8AF" d="M92.217,0c20.007,7.852,34.179,27.321,34.179,50.113c0,8.471-1.963,16.482-5.449,23.612
			c-0.003,0.007-0.001,0.015-0.004,0.022c-0.053,0.096-5.299,10.369-1.538,19.084c2.435,5.644,8.067,9.697,16.728,12.067
			c5.735-10.385,9.002-22.323,9.002-35.025C145.135,36.605,122.747,8.568,92.217,0z"/>
		<path fill="#1FE8AF" d="M42.301,104.151c0.002-0.005,0.006-0.009,0.009-0.014v0c0.367-0.843,0.211-1.834-0.397-2.524
			c-0.868-0.984-2.374-1.08-3.358-0.212l0,0c-6.4,5.855-12.839,7.55-18.146,7.55c-4.474,0-8.138-1.202-10.306-2.132
			c3.017,5.09,6.638,9.78,10.765,13.97C36.458,119.147,42.243,104.304,42.301,104.151z"/>
		<path fill="#1FE8AF" d="M74.792,114.438C74.792,114.438,74.792,114.438,74.792,114.438c-0.165-0.49-0.384-0.859-0.651-1.094
			c-0.478-0.421-1.097-0.631-1.723-0.59c-0.634,0.04-1.215,0.324-1.636,0.801c-0.228,0.259-0.394,0.556-0.492,0.882
			c0,0,0,0.001,0,0.001c-5.828,19.261-19.863,21.802-26.857,21.802c-0.09,0-0.171-0.003-0.258-0.004
			c8.986,3.986,18.929,6.204,29.392,6.204c10.464,0,20.408-2.219,29.394-6.205c-0.106,0.001-0.203,0.005-0.312,0.005
			C94.656,136.241,80.621,133.701,74.792,114.438z"/>
		<path fill="#1FE8AF" d="M106.526,101.4c-0.985-0.865-2.489-0.771-3.356,0.213c-0.608,0.69-0.764,1.681-0.397,2.524v0
			c0.002,0.005,0.007,0.009,0.009,0.014c0.058,0.153,5.855,15.025,21.481,16.643c4.138-4.2,7.766-8.902,10.788-14.006
			C130.354,108.82,118.38,112.246,106.526,101.4z"/>
		<path fill="#1FE8AF" d="M25.677,92.831c3.76-8.715-1.485-19.102-1.538-19.198c-0.001-0.001,0-0.003-0.001-0.005
			c-3.456-7.105-5.399-15.083-5.399-23.515C18.738,27.321,32.91,7.852,52.917,0C22.387,8.568,0,36.605,0,69.873
			c0,12.697,3.265,24.631,8.995,35.013C17.63,102.514,23.247,98.465,25.677,92.831z"/>
		<circle fill="#1FE8AF" cx="47.002" cy="77.674" r="4.202"/>
		<circle fill="#1FE8AF" cx="98.132" cy="77.674" r="4.202"/>
	</g>
	<g>
		<path fill="#1FE8AF" d="M168.185,74.829v-0.303c0-23.309,18.768-42.229,44.045-42.229c25.125,0,43.743,18.617,43.743,41.926v0.303
			c0,23.309-18.768,42.229-44.045,42.229C186.802,116.756,168.185,98.138,168.185,74.829z M233.269,74.829v-0.303
			c0-11.958-8.628-22.401-21.342-22.401c-13.169,0-21.039,10.141-21.039,22.098v0.303c0,11.958,8.628,22.401,21.342,22.401
			C225.398,96.928,233.269,86.786,233.269,74.829z"/>
		<path fill="#1FE8AF" d="M268.687,74.829v-0.303c0-23.158,17.709-42.229,42.531-42.229c12.26,0,20.888,3.33,27.699,9.082
			c1.514,1.211,3.633,3.935,3.633,7.871c0,5.751-4.692,10.292-10.443,10.292c-3.027,0-5.298-1.211-6.66-2.27
			c-4.086-3.179-8.325-5.146-14.379-5.146c-11.504,0-19.677,10.141-19.677,22.098v0.303c0,12.411,8.022,22.401,20.585,22.401
			c6.054,0,10.746-2.119,15.136-5.6c1.21-0.908,3.481-2.119,6.205-2.119c5.45,0,9.688,4.389,9.688,9.838
			c0,3.027-1.363,5.449-3.33,7.265c-6.812,6.206-15.438,10.444-28.758,10.444C286.548,116.756,268.687,97.987,268.687,74.829z"/>
		<path fill="#1FE8AF" d="M362.833,91.933V53.488h-0.757c-5.449,0-9.838-4.389-9.838-9.838c0-5.449,4.389-9.838,9.838-9.838h0.757
			V23.67c0-6.358,5.146-11.503,11.504-11.503c6.356,0,11.503,5.146,11.503,11.503v10.141h10.142c5.449,0,9.838,4.39,9.838,9.838
			c0,5.449-4.389,9.838-9.838,9.838H385.84v34.661c0,5.297,2.271,7.871,7.416,7.871c0.757,0,2.271-0.151,2.725-0.151
			c5.146,0,9.535,4.238,9.535,9.536c0,4.086-2.724,7.416-5.903,8.628c-4.237,1.665-8.173,2.27-13.168,2.27
			C372.368,116.302,362.833,110.702,362.833,91.933z"/>
		<path fill="#1FE8AF" d="M415.657,74.829v-0.303c0-23.309,18.768-42.229,44.047-42.229c25.124,0,43.743,18.617,43.743,41.926v0.303
			c0,23.309-18.769,42.229-44.047,42.229C434.276,116.756,415.657,98.138,415.657,74.829z M480.743,74.829v-0.303
			c0-11.958-8.629-22.401-21.343-22.401c-13.168,0-21.039,10.141-21.039,22.098v0.303c0,11.958,8.629,22.401,21.343,22.401
			C472.872,96.928,480.743,86.786,480.743,74.829z"/>
		<path fill="#1FE8AF" d="M520.095,44.406c0-6.357,5.146-11.503,11.503-11.503c6.357,0,11.504,5.146,11.504,11.503v0.908
			c5.297-6.811,12.108-13.017,23.763-13.017c17.406,0,27.547,11.503,27.547,30.121v41.926c0,6.357-5.146,11.503-11.503,11.503
			c-6.357,0-11.503-5.146-11.503-11.503V69.683c0-10.898-5.147-16.498-13.925-16.498s-14.379,5.601-14.379,16.498v34.661
			c0,6.357-5.147,11.503-11.504,11.503c-6.357,0-11.503-5.146-11.503-11.503V44.406z"/>
	</g>
</g>
</svg>
